<svg width="344" height="55" viewBox="0 0 344 55" fill="none" xmlns="http://www.w3.org/2000/svg">
<path d="M44.6558 1.09897H1.6884C0.75983 1.09897 9.15527e-05 1.85934 9.15527e-05 2.78868V10.8317C9.15527e-05 11.7611 0.75983 12.5214 1.6884 12.5214H17.1702V52.0776C17.1702 53.007 17.9299 53.7674 18.8585 53.7674H27.5533C28.4818 53.7674 29.2416 53.007 29.2416 52.0776V12.5214H44.6558C45.5844 12.5214 46.3441 11.7611 46.3441 10.8317V2.78868C46.3441 1.85934 45.5844 1.09897 44.6558 1.09897Z" fill="#131313"></path>
<path d="M94.1576 53.7667H103.511C104.186 53.7667 104.811 53.3611 105.064 52.719L109.2 42.8173H130.49L134.694 52.7359C134.964 53.3611 135.572 53.7667 136.247 53.7667H145.448C145.448 53.7667 145.465 53.7667 145.482 53.7667C146.411 53.7667 147.17 53.0063 147.17 52.077C147.17 51.7221 147.052 51.4011 146.867 51.1138L125.476 1.80794C125.206 1.19964 124.598 0.794098 123.922 0.794098H115.802C115.126 0.794098 114.519 1.19964 114.248 1.80794L93.0602 50.3196L80.8031 35.315C87.2524 32.3073 91.0342 26.4609 91.0342 19.2965C91.0342 8.56678 82.4745 1.08135 70.2174 1.08135H50.0084C49.0798 1.08135 48.3201 1.84172 48.3201 2.77106V52.077C48.3201 53.0063 49.0798 53.7667 50.0084 53.7667H58.7031C59.6317 53.7667 60.3915 53.0063 60.3915 52.077V37.5285H67.6174L80.4486 53.1584C80.7693 53.547 81.2421 53.7836 81.7486 53.7836H92.3174C92.3174 53.7836 92.3342 53.7836 92.3511 53.7836H94.1407L94.1576 53.7667ZM60.4083 12.5038H69.9473C74.3706 12.5038 79.1148 14.6329 79.1148 19.2965C79.1148 23.9601 74.5057 26.0891 69.9473 26.0891H60.4083V12.5038ZM125.729 31.3779H113.995L119.803 17.4209L125.712 31.3779H125.729Z" fill="#131313"></path>
<path d="M194.557 1.09858H185.93C185.001 1.09858 184.241 1.85895 184.241 2.78829V32.1217L158.9 1.70688C158.579 1.31824 158.106 1.09858 157.6 1.09858H150.998C150.07 1.09858 149.31 1.85895 149.31 2.78829V52.0941C149.31 53.0235 150.07 53.7839 150.998 53.7839H159.693C160.622 53.7839 161.382 53.0235 161.382 52.0941V23.5042L186.436 53.1756C186.757 53.5642 187.23 53.767 187.719 53.767H194.523C195.452 53.767 196.211 53.0066 196.211 52.0773V2.77138C196.211 1.84204 195.452 1.08167 194.523 1.08167" fill="#131313"></path>
<path d="M225.215 22.507L218.985 21.2735C213.177 20.1245 212.384 18.2151 212.384 16.3395C212.384 11.2535 218.58 10.848 220.471 10.848C225.873 10.848 228.861 13.0615 229.604 17.6237C229.739 18.4348 230.448 19.0431 231.276 19.0431H239.92C240.832 19.0938 241.625 18.2996 241.625 17.3534C241.625 17.1844 241.591 16.9985 241.541 16.8465C240.139 4.44395 229.486 0 219.896 0C207.876 0 199.806 6.86025 199.806 17.0661C199.806 22.8787 202.456 30.3304 215.085 32.7129L223.239 34.3181C229.081 35.2981 229.081 37.9003 229.081 38.7452C229.081 43.375 223.003 43.7298 221.129 43.7298C214.663 43.7298 210.526 40.8235 209.767 35.7375C209.648 34.9095 208.939 34.3012 208.095 34.3012H199.468C198.995 34.3012 198.539 34.504 198.236 34.8419C197.915 35.1968 197.746 35.653 197.797 36.1261C198.725 47.4641 207.69 54.7805 220.622 54.7805C233.555 54.7805 241.372 47.9203 241.372 37.7144C241.372 26.9678 232.154 23.8926 225.232 22.4901" fill="#131313"></path>
<path d="M296.707 53.7664H315.177C331.132 53.7664 343.169 42.3439 343.169 27.2041C343.169 12.0642 331.132 1.08107 315.177 1.08107H305.942H296.707C295.779 1.08107 295.019 1.84144 295.019 2.77079V51.2825C295.019 51.2825 294.968 51.1642 294.934 51.1135L273.544 1.80766C273.273 1.18247 272.666 0.793823 271.99 0.793823H263.887C263.211 0.793823 262.603 1.19936 262.333 1.80766L240.672 51.4008C240.436 51.9246 240.487 52.516 240.807 53.006C241.111 53.4791 241.651 53.7664 242.226 53.7664H251.579C252.254 53.7664 252.879 53.3608 253.132 52.7187L257.268 42.817H278.575L282.779 52.7356C283.049 53.3608 283.657 53.7664 284.332 53.7664H293.533C293.533 53.7664 293.55 53.7664 293.567 53.7664H296.741H296.707ZM262.063 31.3945L267.871 17.4375L273.78 31.3945H262.063ZM315.177 42.3439H307.09V12.5204H315.177C324.125 12.5204 330.879 18.84 330.879 27.221C330.879 35.6019 324.125 42.3439 315.177 42.3439Z" fill="#131313"></path>
</svg>